<?xml version="1.0" encoding="UTF-8" standalone="no"?>
<!-- Created with Inkscape (http://www.inkscape.org/) -->

<svg
   xmlns:dc="http://purl.org/dc/elements/1.1/"
   xmlns:cc="http://creativecommons.org/ns#"
   xmlns:rdf="http://www.w3.org/1999/02/22-rdf-syntax-ns#"
   xmlns:svg="http://www.w3.org/2000/svg"
   xmlns="http://www.w3.org/2000/svg"
   xmlns:sodipodi="http://sodipodi.sourceforge.net/DTD/sodipodi-0.dtd"
   xmlns:inkscape="http://www.inkscape.org/namespaces/inkscape"
   sodipodi:docname="arronax.svg"
   inkscape:version="0.48.3.1 r9886"
   version="1.1"
   id="svg3102"
   height="64px"
   width="64px"
   inkscape:export-filename="/home/diesch/projects/arronax/trunk/data/icons/arronax.png"
   inkscape:export-xdpi="90"
   inkscape:export-ydpi="90">
  <defs
     id="defs3104">
    <filter
       inkscape:collect="always"
       id="filter3916">
      <feGaussianBlur
         inkscape:collect="always"
         stdDeviation="0.92424127"
         id="feGaussianBlur3918" />
    </filter>
    <filter
       inkscape:collect="always"
       id="filter4042">
      <feGaussianBlur
         inkscape:collect="always"
         stdDeviation="0.66326208"
         id="feGaussianBlur4044" />
    </filter>
  </defs>
  <sodipodi:namedview
     id="base"
     pagecolor="#ffffff"
     bordercolor="#666666"
     borderopacity="1.0"
     inkscape:pageopacity="0.0"
     inkscape:pageshadow="2"
     inkscape:zoom="14.921875"
     inkscape:cx="42.45445"
     inkscape:cy="36.013871"
     inkscape:current-layer="layer1"
     showgrid="true"
     inkscape:document-units="px"
     inkscape:grid-bbox="true"
     inkscape:window-width="1600"
     inkscape:window-height="1176"
     inkscape:window-x="0"
     inkscape:window-y="24"
     inkscape:window-maximized="1" />
  <metadata
     id="metadata3107">
    <rdf:RDF>
      <cc:Work
         rdf:about="">
        <dc:format>image/svg+xml</dc:format>
        <dc:type
           rdf:resource="http://purl.org/dc/dcmitype/StillImage" />
        <dc:title></dc:title>
      </cc:Work>
    </rdf:RDF>
  </metadata>
  <g
     id="layer1"
     inkscape:label="Layer 1"
     inkscape:groupmode="layer">
    <g
       id="g4293"
       transform="matrix(0.9875,0,0,0.9875,0.06979764,0.79999896)">
      <path
         inkscape:connector-curvature="0"
         id="path4300"
         style="font-size:95.95314789px;font-style:normal;font-variant:normal;font-weight:normal;font-stretch:normal;line-height:125%;letter-spacing:0px;word-spacing:0px;opacity:0.52100004;fill:#000000;fill-opacity:1;stroke:none;filter:url(#filter4042);font-family:Penguin Attack;-inkscape-font-specification:Penguin Attack"
         d="m 7.4853697,63.906296 c 0.5309881,-1.280624 1.0463609,-3.170324 1.5461201,-5.669107 0.5309865,-2.498772 1.0932112,-5.356748 1.6866762,-8.573939 0.593454,-3.248396 1.233766,-6.731067 1.920937,-10.448023 0.718391,-3.716907 1.514877,-7.402603 2.389459,-11.057101 0.905797,-3.685661 1.920925,-7.215184 3.045388,-10.58858 1.124437,-3.404538 2.389443,-6.403071 3.795021,-8.9956075 C 23.305752,5.9502776 24.91434,3.8731689 26.69474,2.3426062 28.475098,0.78093186 30.458502,6.3921197e-5 32.64496,1.4901161e-8 34.519015,6.3921197e-5 36.236925,0.56228883 37.798693,1.6866764 c 1.592938,1.1245121 3.045353,2.6706306 4.357248,4.6383602 1.311821,1.9366101 2.49874,4.2167444 3.560761,6.8404104 1.093175,2.592532 2.092686,5.372422 2.998536,8.339677 0.936998,2.967341 1.780335,6.043961 2.530015,9.229869 0.749587,3.154739 1.436751,6.262594 2.061493,9.323572 0.655881,3.029792 1.264958,5.93462 1.827233,8.714495 0.59341,2.779905 1.155635,5.263065 1.686676,7.449488 0.281061,1.186927 0.609026,2.420698 0.983895,3.701317 0.405999,1.249393 0.749581,2.576868 1.030747,3.982431 -1.374382,0 -2.748709,0.01562 -4.122987,0.04685 -1.374377,0.03124 -2.608149,0.01562 -3.701318,-0.04685 -0.06252,-1.874083 -0.32801,-3.873105 -0.796486,-5.997072 -0.468566,-2.123955 -1.124495,-4.201063 -1.967789,-6.231332 -0.812146,-2.061479 -1.811657,-4.013649 -2.998536,-5.856516 -1.155725,-1.84283 -2.451965,-3.420183 -3.888726,-4.732064 -1.405599,-1.34307 -2.9361,-2.358198 -4.591508,-3.045388 -1.624237,-0.687138 -3.342147,-0.890164 -5.153734,-0.609078 -1.343119,0.187435 -2.63936,0.593486 -3.888726,1.218155 -1.249411,0.62472 -2.342626,1.421205 -3.279649,2.389459 -0.905826,0.968299 -1.608607,2.092749 -2.108345,3.373353 -0.468538,1.249408 -0.609094,2.623735 -0.421669,4.122986 0.156157,1.249404 0.530973,2.202063 1.124451,2.85798 0.624676,0.624707 1.327457,0.999523 2.108345,1.124451 0.812083,0.12495 1.65542,0.03125 2.530015,-0.281113 0.874549,-0.312335 1.6398,-0.796473 2.295754,-1.452416 0.687139,-0.655916 1.186894,-1.452401 1.499268,-2.389458 0.312321,-0.937026 0.312321,-1.967772 0,-3.09224 0.343555,-0.03122 0.780841,0.03125 1.311859,0.187408 0.530963,0.124958 1.07757,0.265514 1.639824,0.42167 0.562196,0.156191 1.093186,0.296747 1.592973,0.421669 0.499724,0.124956 0.905776,0.156191 1.218155,0.0937 0.374785,1.717927 0.296698,3.248428 -0.234261,4.591508 -0.531022,1.311871 -1.327507,2.420703 -2.389458,3.326501 -1.030775,0.905816 -2.248929,1.59298 -3.654466,2.061493 -1.374353,0.468528 -2.733063,0.702789 -4.076134,0.702782 -1.936574,7e-6 -3.529545,-0.327958 -4.778917,-0.983895 -1.249405,-0.655921 -2.202064,-1.530493 -2.857979,-2.623719 -0.655943,-1.093204 -1.046377,-2.326976 -1.171303,-3.701317 -0.124952,-1.405548 -0.01563,-2.826728 0.327964,-4.263543 0.343569,-1.468014 0.890177,-2.904811 1.639825,-4.310396 0.749618,-1.405539 1.655425,-2.654928 2.717423,-3.74817 1.093197,-1.124423 2.326969,-2.03023 3.701318,-2.717423 1.374306,-0.718369 2.857955,-1.108803 4.450951,-1.171303 0.718373,-0.0312 1.655415,0.01565 2.811128,0.140557 1.155656,0.09373 2.420662,0.359229 3.795022,0.796486 1.40553,0.437315 2.889179,1.093244 4.450951,1.967789 1.561699,0.843365 3.123435,2.014667 4.685213,3.513909 -0.406093,-1.468008 -0.858997,-3.357708 -1.358712,-5.669107 -0.499795,-2.311339 -1.06202,-4.763265 -1.686676,-7.355783 C 42.983624,24.363144 42.29646,21.739427 41.546863,19.115666 40.797194,16.46076 39.969474,14.071304 39.063701,11.947291 38.15786,9.7921478 37.173966,8.0430037 36.112017,6.6998536 35.050006,5.3255832 33.894321,4.6228021 32.64496,4.5915081 c -1.592998,-0.031175 -3.076647,0.6559883 -4.450952,2.0614934 -1.343116,1.3743848 -2.592504,3.2640852 -3.74817,5.6691065 -1.124469,2.37389 -2.155214,5.122546 -3.09224,8.245974 -0.905823,3.123515 -1.717925,6.387543 -2.43631,9.792094 -0.718412,3.404617 -1.327489,6.840436 -1.827233,10.307467 -0.499767,3.435842 -0.905819,6.668635 -1.218155,9.698389 -0.281123,3.029781 -0.468532,5.731584 -0.562226,8.105418 -0.09371,2.373843 -0.0781,4.185457 0.04685,5.434846 l -7.8711563,0"
         transform="matrix(0.95261261,0,0,0.95261261,0.85254082,1.5163965)" />
      <g
         style="font-size:91.40618134px;font-style:normal;font-variant:normal;font-weight:normal;font-stretch:normal;line-height:125%;letter-spacing:0px;word-spacing:0px;fill:#000080;fill-opacity:1;stroke:none;font-family:Penguin Attack;-inkscape-font-specification:Penguin Attack"
         id="text3110">
        <path
           d="m 5.5838174,61.19434 c 0.5058259,-1.219938 0.9967766,-3.020091 1.4728535,-5.400463 0.5058244,-2.380362 1.041407,-5.102906 1.6067493,-8.167642 0.565332,-3.094464 1.175301,-6.4121 1.8299088,-9.952919 0.684349,-3.540773 1.443091,-7.051814 2.276228,-10.533135 0.862874,-3.511007 1.829898,-6.873275 2.901075,-10.086815 1.071153,-3.243205 2.276214,-6.099646 3.615186,-8.5693291 1.368695,-2.4993325 2.901057,-4.4780125 4.597088,-5.9360459 1.695991,-1.4876707 3.585408,-2.23153536 5.668255,-2.23159624 1.785249,6.088e-5 3.421751,0.53564344 4.909512,1.60674924 1.517452,1.0712244 2.901041,2.5440765 4.150768,4.4185606 1.249658,1.8448392 2.380332,4.0169244 3.392027,6.5162614 1.041372,2.469679 1.993519,5.117837 2.856443,7.944482 0.892596,2.826726 1.69597,5.757553 2.410124,8.792489 0.714066,3.005245 1.368667,5.965826 1.963805,8.881753 0.6248,2.886218 1.205015,5.653394 1.740645,8.301538 0.565289,2.648173 1.100872,5.013662 1.606749,7.096476 0.267742,1.130682 0.580165,2.305988 0.93727,3.525922 0.38676,1.190187 0.71406,2.454757 0.981903,3.793714 -1.309253,0 -2.618455,0.01488 -3.92761,0.04463 -1.309249,0.02975 -2.484555,0.01488 -3.525922,-0.04463 -0.05955,-1.785275 -0.312466,-3.689569 -0.758743,-5.712887 -0.446361,-2.023306 -1.071207,-4.001986 -1.87454,-5.936046 -0.77366,-1.963791 -1.725807,-3.823452 -2.856443,-5.57899 -1.100958,-1.755503 -2.335774,-3.25811 -3.70445,-4.507824 -1.338991,-1.279426 -2.796966,-2.24645 -4.373929,-2.901076 -1.547268,-0.654576 -3.183771,-0.847981 -4.909512,-0.580215 -1.279472,0.178553 -2.514287,0.565363 -3.704449,1.16043 -1.190205,0.595116 -2.231616,1.353858 -3.124235,2.276229 -0.862901,0.922414 -1.532379,1.993579 -2.008437,3.213498 -0.446335,1.190202 -0.58023,2.499404 -0.401687,3.92761 0.148757,1.190198 0.505812,2.097713 1.071166,2.722547 0.595075,0.595104 1.264553,0.952159 2.008437,1.071166 0.7736,0.119029 1.576974,0.02977 2.410124,-0.267791 0.833107,-0.297535 1.562094,-0.758731 2.186964,-1.38359 0.654578,-0.624834 1.130651,-1.383576 1.428222,-2.276228 0.297521,-0.892623 0.297521,-1.874524 0,-2.945707 0.327275,-0.02974 0.743839,0.02977 1.249694,0.178527 0.505801,0.119036 1.026507,0.252932 1.562117,0.401688 0.535555,0.14879 1.041383,0.282685 1.517485,0.401687 0.476045,0.119035 0.862854,0.14879 1.16043,0.08926 0.357025,1.636519 0.282639,3.094494 -0.223159,4.373929 -0.505858,1.249704 -1.2646,2.305992 -2.276228,3.168866 -0.98193,0.862892 -2.142358,1.517493 -3.48129,1.963805 -1.309227,0.446326 -2.603551,0.669485 -3.882978,0.669479 -1.844805,6e-6 -3.362289,-0.312417 -4.552456,-0.937271 -1.1902,-0.624839 -2.097715,-1.457967 -2.722548,-2.499387 -0.624859,-1.041401 -0.996791,-2.216707 -1.115798,-3.525923 -0.11903,-1.338942 -0.01489,-2.692776 0.312424,-4.061505 0.327288,-1.398448 0.847993,-2.767159 1.562117,-4.106137 0.714096,-1.338934 1.576979,-2.529118 2.588652,-3.570554 1.041394,-1.07114 2.2167,-1.934023 3.525922,-2.588651 1.309181,-0.684328 2.722524,-1.05626 4.240033,-1.115798 0.684331,-0.02973 1.576968,0.01491 2.677915,0.133895 1.100893,0.08929 2.305953,0.342207 3.615186,0.758743 1.338926,0.416592 2.752269,1.041439 4.240033,1.874541 1.487694,0.8034 2.975424,1.919197 4.463192,3.347394 C 42.509257,37.033615 42.077816,35.233463 41.60178,33.031595 41.125669,30.829784 40.590086,28.494049 39.995031,26.024383 39.399903,23.525033 38.745302,21.025648 38.031226,18.52622 37.317082,15.997123 36.528585,13.720897 35.665734,11.697536 34.802819,9.6445185 33.86555,7.9782617 32.853923,6.69876 31.842238,5.3896126 30.741318,4.7201345 29.551161,4.6903234 c -1.51751,-0.029698 -2.930853,0.6249028 -4.240033,1.9638046 -1.279469,1.3092564 -2.469652,3.1094089 -3.570554,5.400463 -1.071183,2.261398 -2.053085,4.879801 -2.945707,7.855219 -0.862898,2.9755 -1.636518,6.084854 -2.32086,9.328072 -0.684368,3.243282 -1.264583,6.516286 -1.740645,9.819023 -0.476085,3.273027 -0.862894,6.352627 -1.16043,9.238809 -0.267801,2.886207 -0.446329,5.459979 -0.535583,7.721323 -0.08927,2.261353 -0.0744,3.987119 0.04463,5.177303 l -7.4981636,0"
           style=""
           id="path4303" />
      </g>
    </g>
  </g>
</svg>
